<svg xmlns="http://www.w3.org/2000/svg" width="1403.355" height="954.878" viewBox="0 0 1403.355 954.878"><g transform="translate(2030.7 -85)"><path d="M0,0H881.4V874.847s-27.151-254.163-204.26-147.069-195.928,66.194-256.3,89.676C207.62,852.866,289,1008.922,164.538,935.449S0,874.847,0,874.847Z" transform="translate(-1739.063 85)" fill="#00ffe5"/><path d="M.2,62.988s104.631-141.722,418.792,0c164.619,74.262,415.7,147.186,608.286,50.47s317.712-50.47,317.712-50.47V439.6S1220.725,85.5,874.614,372.763C652.576,571.12,488.7,367.359,286.144,439.6-17.715,605.718.2,439.6.2,439.6Z" transform="translate(-2030.7 438.451) rotate(-8)" fill="#06c9b5"/></g></svg>