<svg xmlns="http://www.w3.org/2000/svg" width="1566.084" height="682.718" viewBox="0 0 1566.084 682.718"><g transform="translate(25 91.693)" fill="#00ffe5" stroke="#707070" stroke-width="1"><rect width="1380.084" height="506.344" stroke="none"/><rect x="0.5" y="0.5" width="1379.084" height="505.344" fill="none"/></g><path d="M.458,6.738s-93.037,115.772,273.506,0C377.7-26.026,529.53-127.842,658.664-43.784c141.555,48.419,265.445-10.326,443.668,67S1428.471,6.738,1428.471,6.738V312.562s-52.425,67.413-274.615-2.983c-170.1-104.25-309.963-13.764-420.249-34.908-226.924-43.506-376.777,6.768-485.489,37.891-299.479,85.738-247.659,0-247.659,0Z" transform="translate(10.403 76.271)" fill="#00dbc4"/><g transform="translate(0 375.42)"><path d="M146.5,0C227.41,0,293,57.261,293,127.9s-65.59,82.148-146.5,82.148S0,198.53,0,127.9,65.59,0,146.5,0Z" transform="translate(0 51.507)" fill="#00ffe5"/><ellipse cx="146.5" cy="127.895" rx="146.5" ry="127.895" transform="translate(242.011 14.841)" fill="#00ffe5"/><ellipse cx="146.5" cy="127.895" rx="146.5" ry="127.895" transform="translate(456.681)" fill="#00ffe5"/><ellipse cx="146.5" cy="127.895" rx="146.5" ry="127.895" transform="translate(1132.084 51.507)" fill="#00ffe5"/><ellipse cx="146.5" cy="127.895" rx="146.5" ry="127.895" transform="translate(885.01)" fill="#00ffe5"/><ellipse cx="146.5" cy="127.895" rx="146.5" ry="127.895" transform="translate(670.34 51.507)" fill="#00ffe5"/></g><path d="M.458,6.738s-93.037,115.772,273.506,0C377.7-26.026,529.53-127.842,658.664-43.784c141.555,48.419,265.445-10.326,443.668,67S1428.471,6.738,1428.471,6.738V312.562s-52.425,67.413-274.615-2.983c-170.1-104.25-309.963-13.764-420.249-34.908-226.924-43.506-376.777,6.768-485.489,37.891-299.479,85.738-247.659,0-247.659,0Z" transform="translate(10.403 152.223)" fill="#06c9b5"/><text transform="translate(1489.084 584.132)" fill="#fff" font-size="41" font-family="Gabriola"><tspan x="0" y="0">Baron</tspan></text></svg>