<svg xmlns="http://www.w3.org/2000/svg" viewBox="0 0 216.205 117.478"><g transform="translate(-2.234)"><g transform="matrix(-0.407, -0.914, 0.914, -0.407, 37.386, 115.013)"><g transform="translate(0.48 27.439)" fill="#004270"><path d="M0,46.92S60.242,60.361,67.3,16.883,91.437,27.631,91.437,27.631h0L0,46.92Z" stroke="none"/><path d="M 20.05797958374023 47.88193130493164 C 27.85229301452637 47.88193130493164 34.87489318847656 46.94038391113281 40.93069076538086 45.08343124389648 C 47.46814727783203 43.07879257202148 52.84130477905273 40.00549697875977 56.94623184204102 35.92925643920898 L 5.31673526763916 46.82045364379883 C 8.928391456604004 47.33363723754883 14.16492938995361 47.88171768188477 20.05740547180176 47.88193130493164 L 20.05797958374023 47.88193130493164 M 62.18636322021484 32.77984619140625 L 90.14016723632813 26.88302040100098 C 89.41136169433594 24.69992828369141 87.58258819580078 19.43818473815918 85.22872924804688 14.227370262146 C 83.44477844238281 10.27820777893066 81.71791839599609 7.141482830047607 80.09610748291016 4.904345512390137 C 78.24441528320313 2.350095510482788 76.54470825195313 0.9999955296516418 75.18071746826172 0.9999955296516418 C 73.98319244384766 0.9999955296516418 72.83013153076172 2.085232973098755 71.75359344482422 4.225557804107666 C 70.39059448242188 6.93539571762085 69.22280120849609 11.24778270721436 68.28263854980469 17.04292106628418 C 67.30495452880859 23.06936645507813 65.25786590576172 28.34980773925781 62.18636322021484 32.77984619140625 M 20.05450820922852 48.88192749023438 C 8.795141220092773 48.88152313232422 4.632568561646622e-06 46.92000961303711 4.632568561646622e-06 46.92000961303711 L 59.77479553222656 34.31057357788086 C 49.99941635131836 46.16066360473633 33.31605911254883 48.88240814208984 20.05450820922852 48.88192749023438 Z M 59.77479553222656 34.31057357788086 C 63.42531585693359 29.88527297973633 66.11034393310547 24.18836784362793 67.29553985595703 16.88278388977051 C 69.31378936767578 4.442318439483643 72.15473937988281 -5.584716745943297e-06 75.18071746826172 -5.584716745943297e-06 C 82.73017120361328 -5.584716745943297e-06 91.43730163574219 27.63139533996582 91.43730163574219 27.63139533996582 L 59.77479553222656 34.31057357788086 Z" stroke="none" fill="rgba(112,112,112,0)"/></g><g transform="translate(0 0)" fill="rgba(0,176,255,0)"><path d="M3.626,0l56.98,3.552L86.426,48.129A119.611,119.611,0,0,0,73.167,35.36c-8.3-6.87-19.66-14.067-32.405-6.94C15.917,42.312,0,75.235,0,75.235Z" stroke="none"/><path d="M 4.576324462890625 1.061164855957031 L 1.215202331542969 70.79421997070313 C 3.092422485351563 67.40617370605469 6.169662475585938 62.19694519042969 10.24919891357422 56.45778656005859 C 16.77294921875 47.28009033203125 27.27761077880859 34.81444549560547 40.27410507202148 27.54730224609375 C 43.91851806640625 25.50950241088867 47.71260070800781 24.47624588012695 51.55095291137695 24.47624588012695 C 60.4513053894043 24.47624588012695 68.11918640136719 29.88125610351563 73.80506134033203 34.59006881713867 C 76.72255706787109 37.00617599487305 79.28923034667969 39.37137603759766 81.37391662597656 41.40258407592773 L 60.00930023193359 4.516960144042969 L 4.576324462890625 1.061164855957031 M 3.626319885253906 0 L 60.60615158081055 3.552230834960938 L 86.42557525634766 48.12898635864258 C 86.42557525634766 48.12898635864258 81.16673278808594 41.9849853515625 73.167236328125 35.36025619506836 C 67.29878997802734 30.5002326965332 59.89401245117188 25.47624969482422 51.55095672607422 25.47624969482422 C 48.10101699829102 25.47624969482422 44.49073028564453 26.33525466918945 40.76215362548828 28.42012786865234 C 15.91732788085938 42.31237411499023 0 75.23500823974609 0 75.23500823974609 L 3.626319885253906 0 Z" stroke="none" fill="rgba(112,112,112,0)"/></g><path d="M0,0" transform="translate(6.495 5.983)" fill="none" stroke="#707070" stroke-width="1"/><path d="M3.626,0,28.992,36.778s-5.415,5.167-5.789,9.914c-.225,2.85,2.323,5.284,7.246,7.031C43.1,58.215,78.307,57.49,78.307,57.49L0,75.235H0L17.694,32.248Z" transform="translate(0 0)" fill="#fff" stroke="rgba(112,112,112,0)" stroke-width="1"/></g><text transform="translate(73.439 112.478)" fill="#07f" stroke="rgba(255,255,255,0.8)" stroke-width="1" font-size="22" font-family="ShowcardGothic-Reg, Showcard Gothic"><tspan x="0" y="0">Baron Fight</tspan></text></g></svg>