<svg xmlns="http://www.w3.org/2000/svg" viewBox="0 0 453.395 456.139"><g transform="translate(82.554)"><path d="M0,0H421.041V417.909s-12.97-121.412-97.573-70.254-93.594,31.621-122.434,42.838C99.178,407.408,138.053,481.955,78.6,446.858S0,417.909,0,417.909Z" transform="translate(-50.2)" fill="#00ffe5"/><path d="M0-5.752s33.786-45.763,135.229,0c53.156,23.979,134.231,47.527,196.418,16.3s102.59-16.3,102.59-16.3V115.857S394.11,1.519,282.35,94.276c-71.7,64.05-124.613-1.745-190.019,21.581C-5.786,169.5,0,115.857,0,115.857Z" transform="translate(-78.857 278.068) rotate(-8)" fill="#06c9b5"/></g></svg>